<?xml version="1.0" encoding="UTF-8"?>
<svg width="492px" height="103px" viewBox="0 0 492 103" version="1.1" xmlns="http://www.w3.org/2000/svg" xmlns:xlink="http://www.w3.org/1999/xlink">
    <path d="M36.7977839,0 L36.7977839,7.49038889 L14.7191136,7.49038889 L14.7191136,44.9423333 L36.7977839,44.9423333 L36.7977839,52.4327222 L7.35955679,52.4327222 L7.35955679,44.9423333 L0,44.9423333 L0,7.49038889 L7.35955679,7.49038889 L7.35955679,0 L36.7977839,0 Z M44.2936288,37.4519444 L44.2936288,44.9423333 L36.7977839,44.9423333 L36.7977839,37.4519444 L44.2936288,37.4519444 Z M44.2936288,7.49038889 L44.2936288,14.9807778 L36.7977839,14.9807778 L36.7977839,7.49038889 L44.2936288,7.49038889 Z M90.7451524,0 L90.7451524,7.49038889 L98.1274238,7.49038889 L98.1274238,44.9423333 L90.7451524,44.9423333 L90.7451524,52.4327222 L61.2160665,52.4327222 L61.2160665,44.9423333 L53.833795,44.9423333 L53.833795,7.49038889 L61.2160665,7.49038889 L61.2160665,0 L90.7451524,0 Z M83.8171745,7.49038889 L68.8254848,7.49038889 L68.8254848,44.9423333 L83.8171745,44.9423333 L83.8171745,7.49038889 Z M145.260388,0 L145.260388,7.49038889 L152.642659,7.49038889 L152.642659,29.9615556 L145.260388,29.9615556 L145.260388,44.9423333 L152.642659,44.9423333 L152.642659,52.4327222 L137.878116,52.4327222 L137.878116,44.9423333 L130.495845,44.9423333 L130.495845,37.4519444 L123.113573,37.4519444 L123.113573,52.4327222 L108.34903,52.4327222 L108.34903,0 L145.260388,0 Z M134.925208,7.49038889 L119.933518,7.49038889 L119.933518,30.6425 L134.925208,30.6425 L134.925208,7.49038889 Z M206.476454,52.4327222 L206.476454,44.9423333 L176.947368,44.9423333 L176.947368,29.9615556 L191.711911,29.9615556 L191.711911,22.4711667 L176.947368,22.4711667 L176.947368,7.49038889 L206.476454,7.49038889 L206.476454,0 L162.182825,0 L162.182825,52.4327222 L206.476454,52.4327222 Z M223.512465,52.4327222 L223.512465,22.4711667 L231.00831,22.4711667 L231.00831,29.9615556 L238.504155,29.9615556 L238.504155,37.4519444 L246,37.4519444 L246,29.9615556 L253.495845,29.9615556 L253.495845,22.4711667 L260.99169,22.4711667 L260.99169,52.4327222 L275.98338,52.4327222 L275.98338,0 L260.99169,0 L260.99169,7.49038889 L253.495845,7.49038889 L253.495845,14.9807778 L246,14.9807778 L246,22.4711667 L238.504155,22.4711667 L238.504155,14.9807778 L231.00831,14.9807778 L231.00831,7.49038889 L223.512465,7.49038889 L223.512465,0 L216.01662,0 L216.01662,52.4327222 L223.512465,52.4327222 Z M322.434903,0 L322.434903,7.49038889 L329.817175,7.49038889 L329.817175,52.4327222 L315.052632,52.4327222 L315.052632,37.4519444 L300.288089,37.4519444 L300.288089,52.4327222 L285.523546,52.4327222 L285.523546,7.49038889 L292.905817,7.49038889 L292.905817,0 L322.434903,0 Z M315.506925,7.49038889 L300.515235,7.49038889 L300.515235,30.6425 L315.506925,30.6425 L315.506925,7.49038889 Z M384.33241,0 L384.33241,7.49038889 L369.567867,7.49038889 L369.567867,52.4327222 L354.803324,52.4327222 L354.803324,7.49038889 L340.038781,7.49038889 L340.038781,0 L384.33241,0 Z M430.67036,0 L430.67036,7.49038889 L408.59169,7.49038889 L408.59169,44.9423333 L430.67036,44.9423333 L430.67036,52.4327222 L401.232133,52.4327222 L401.232133,44.9423333 L393.872576,44.9423333 L393.872576,7.49038889 L401.232133,7.49038889 L401.232133,0 L430.67036,0 Z M438.166205,37.4519444 L438.166205,44.9423333 L430.67036,44.9423333 L430.67036,37.4519444 L438.166205,37.4519444 Z M438.166205,7.49038889 L438.166205,14.9807778 L430.67036,14.9807778 L430.67036,7.49038889 L438.166205,7.49038889 Z M462.470914,52.4327222 L462.470914,29.9615556 L477.235457,29.9615556 L477.235457,52.4327222 L492,52.4327222 L492,0 L477.235457,0 L477.235457,22.4711667 L462.470914,22.4711667 L462.470914,0 L447.706371,0 L447.706371,52.4327222 L462.470914,52.4327222 Z" id="COREMATCH" fill="#22262A"></path>
    <g transform="translate(28.620499, 69.456333)">
        <path d="M7.66620499,22.8116389 L7.66620499,24.7267951 L1.91655125,24.7267951 L1.91655125,22.8116389 L7.66620499,22.8116389 Z M9.58275623,7.49038889 L9.58275623,22.8116389 L7.66620499,22.8116389 L7.66620499,7.49038889 L9.58275623,7.49038889 Z M1.91655125,7.49038889 L1.91655125,22.8116389 L0,22.8116389 L0,7.49038889 L1.91655125,7.49038889 Z M26.6187673,7.49038889 L26.6187673,24.7267951 L24.7022161,24.7267951 L24.7022161,18.9813264 L22.7856648,18.9813264 L22.7856648,17.0661701 L24.7022161,17.0661701 L24.7022161,7.49038889 L26.6187673,7.49038889 Z M18.9525623,7.49038889 L18.9525623,13.2358576 L20.8691136,13.2358576 L20.8691136,15.1510139 L18.9525623,15.1510139 L18.9525623,24.7267951 L17.0360111,24.7267951 L17.0360111,7.49038889 L18.9525623,7.49038889 Z M22.7856648,15.1510139 L22.7856648,17.0661701 L20.8691136,17.0661701 L20.8691136,15.1510139 L22.7856648,15.1510139 Z M42.4196676,22.8116389 L42.4196676,24.7267951 L36.6700139,24.7267951 L36.6700139,22.8116389 L42.4196676,22.8116389 Z M44.3362188,17.0661701 L44.3362188,22.8116389 L42.4196676,22.8116389 L42.4196676,17.0661701 L44.3362188,17.0661701 Z M36.6700139,20.8964826 L36.6700139,22.8116389 L34.7534626,22.8116389 L34.7534626,20.8964826 L36.6700139,20.8964826 Z M42.4196676,15.1510139 L42.4196676,17.0661701 L36.6700139,17.0661701 L36.6700139,15.1510139 L42.4196676,15.1510139 Z M36.6700139,9.40554514 L36.6700139,15.1510139 L34.7534626,15.1510139 L34.7534626,9.40554514 L36.6700139,9.40554514 Z M44.3362188,9.40554514 L44.3362188,11.3207014 L42.4196676,11.3207014 L42.4196676,9.40554514 L44.3362188,9.40554514 Z M42.4196676,7.49038889 L42.4196676,9.40554514 L36.6700139,9.40554514 L36.6700139,7.49038889 L42.4196676,7.49038889 Z M57.5391274,24.7267951 L57.5391274,9.40554514 L61.3722299,9.40554514 L61.3722299,7.49038889 L51.7894737,7.49038889 L51.7894737,9.40554514 L55.6225762,9.40554514 L55.6225762,24.7267951 L57.5391274,24.7267951 Z M76.4916898,22.8116389 L76.4916898,24.7267951 L70.742036,24.7267951 L70.742036,22.8116389 L76.4916898,22.8116389 Z M78.408241,9.40554514 L78.408241,22.8116389 L76.4916898,22.8116389 L76.4916898,9.40554514 L78.408241,9.40554514 Z M70.742036,9.40554514 L70.742036,22.8116389 L68.8254848,22.8116389 L68.8254848,9.40554514 L70.742036,9.40554514 Z M76.4916898,7.49038889 L76.4916898,9.40554514 L70.742036,9.40554514 L70.742036,7.49038889 L76.4916898,7.49038889 Z M94.2091413,7.49038889 L94.2091413,9.40554514 L88.4594875,9.40554514 L88.4594875,15.1510139 L94.2091413,15.1510139 L94.2091413,17.0661701 L88.4594875,17.0661701 L88.4594875,24.7267951 L86.5429363,24.7267951 L86.5429363,7.49038889 L94.2091413,7.49038889 Z M96.1256925,9.40554514 L96.1256925,15.1510139 L94.2091413,15.1510139 L94.2091413,9.40554514 L96.1256925,9.40554514 Z M111.245152,7.49038889 L111.245152,9.40554514 L105.495499,9.40554514 L105.495499,15.1510139 L111.245152,15.1510139 L111.245152,17.0661701 L105.495499,17.0661701 L105.495499,24.7267951 L103.578947,24.7267951 L103.578947,7.49038889 L111.245152,7.49038889 Z M113.161704,9.40554514 L113.161704,15.1510139 L111.245152,15.1510139 L111.245152,9.40554514 L113.161704,9.40554514 Z M122.53151,9.40554514 L122.53151,17.0661701 L128.281163,17.0661701 L128.281163,9.40554514 L130.197715,9.40554514 L130.197715,24.7267951 L128.281163,24.7267951 L128.281163,18.9813264 L122.53151,18.9813264 L122.53151,24.7267951 L120.614958,24.7267951 L120.614958,9.40554514 L122.53151,9.40554514 Z M128.281163,7.49038889 L128.281163,9.40554514 L122.53151,9.40554514 L122.53151,7.49038889 L128.281163,7.49038889 Z M145.317175,7.49038889 L145.317175,9.40554514 L139.567521,9.40554514 L139.567521,15.1510139 L145.317175,15.1510139 L145.317175,17.0661701 L139.567521,17.0661701 L139.567521,22.8116389 L145.317175,22.8116389 L145.317175,24.7267951 L137.65097,24.7267951 L137.65097,7.49038889 L145.317175,7.49038889 Z M147.233726,17.0661701 L147.233726,22.8116389 L145.317175,22.8116389 L145.317175,17.0661701 L147.233726,17.0661701 Z M147.233726,9.40554514 L147.233726,15.1510139 L145.317175,15.1510139 L145.317175,9.40554514 L147.233726,9.40554514 Z M164.951177,24.7267951 L164.951177,22.8116389 L157.284972,22.8116389 L157.284972,7.49038889 L155.368421,7.49038889 L155.368421,24.7267951 L164.951177,24.7267951 Z M181.987188,24.7267951 L181.987188,22.8116389 L174.320983,22.8116389 L174.320983,17.0661701 L178.154086,17.0661701 L178.154086,15.1510139 L174.320983,15.1510139 L174.320983,9.40554514 L181.987188,9.40554514 L181.987188,7.49038889 L172.404432,7.49038889 L172.404432,24.7267951 L181.987188,24.7267951 Z" id="UNSTOPPABLE" fill="#22262A"></path>
        <path d="M212.779778,7.49038889 L212.779778,9.40554514 L207.030125,9.40554514 L207.030125,15.1510139 L212.779778,15.1510139 L212.779778,17.0661701 L207.030125,17.0661701 L207.030125,22.8116389 L212.779778,22.8116389 L212.779778,24.7267951 L205.113573,24.7267951 L205.113573,7.49038889 L212.779778,7.49038889 Z M214.69633,17.0661701 L214.69633,22.8116389 L212.779778,22.8116389 L212.779778,17.0661701 L214.69633,17.0661701 Z M214.69633,9.40554514 L214.69633,15.1510139 L212.779778,15.1510139 L212.779778,9.40554514 L214.69633,9.40554514 Z M227.217798,15.1510139 L227.217798,24.7267951 L225.301247,24.7267951 L225.301247,15.1510139 L227.217798,15.1510139 Z M229.134349,13.2358576 L229.134349,15.1510139 L227.217798,15.1510139 L227.217798,13.2358576 L229.134349,13.2358576 Z M225.301247,13.2358576 L225.301247,15.1510139 L223.384695,15.1510139 L223.384695,13.2358576 L225.301247,13.2358576 Z M231.0509,7.49038889 L231.0509,13.2358576 L229.134349,13.2358576 L229.134349,7.49038889 L231.0509,7.49038889 Z M223.384695,7.49038889 L223.384695,13.2358576 L221.468144,13.2358576 L221.468144,7.49038889 L223.384695,7.49038889 Z" id="BY" fill="#22262A"></path>
        <path d="M321.128809,7.49038889 L321.128809,9.40554514 L315.379155,9.40554514 L315.379155,15.1510139 L321.128809,15.1510139 L321.128809,17.0661701 L315.379155,17.0661701 L315.379155,24.7267951 L313.462604,24.7267951 L313.462604,7.49038889 L321.128809,7.49038889 Z M337.48338,22.8116389 L337.48338,24.7267951 L331.733726,24.7267951 L331.733726,22.8116389 L337.48338,22.8116389 Z M348.088296,7.49038889 L348.088296,22.8116389 L355.754501,22.8116389 L355.754501,24.7267951 L346.171745,24.7267951 L346.171745,7.49038889 L348.088296,7.49038889 Z M339.399931,9.40554514 L339.399931,22.8116389 L337.48338,22.8116389 L337.48338,9.40554514 L339.399931,9.40554514 Z M331.733726,9.40554514 L331.733726,22.8116389 L329.817175,22.8116389 L329.817175,9.40554514 L331.733726,9.40554514 Z M323.04536,9.40554514 L323.04536,15.1510139 L321.128809,15.1510139 L321.128809,9.40554514 L323.04536,9.40554514 Z M337.48338,7.49038889 L337.48338,9.40554514 L331.733726,9.40554514 L331.733726,7.49038889 L337.48338,7.49038889 Z M364.442867,7.49038889 L364.442867,15.1510139 L366.359418,15.1510139 L366.359418,17.0661701 L364.442867,17.0661701 L364.442867,24.7267951 L362.526316,24.7267951 L362.526316,7.49038889 L364.442867,7.49038889 Z M372.109072,20.8964826 L372.109072,24.7267951 L370.192521,24.7267951 L370.192521,20.8964826 L372.109072,20.8964826 Z M380.797438,9.40554514 L380.797438,17.0661701 L386.547091,17.0661701 L386.547091,9.40554514 L388.463643,9.40554514 L388.463643,24.7267951 L386.547091,24.7267951 L386.547091,18.9813264 L380.797438,18.9813264 L380.797438,24.7267951 L378.880886,24.7267951 L378.880886,9.40554514 L380.797438,9.40554514 Z M370.192521,18.9813264 L370.192521,20.8964826 L368.27597,20.8964826 L368.27597,18.9813264 L370.192521,18.9813264 Z M368.27597,17.0661701 L368.27597,18.9813264 L366.359418,18.9813264 L366.359418,17.0661701 L368.27597,17.0661701 Z M368.27597,13.2358576 L368.27597,15.1510139 L366.359418,15.1510139 L366.359418,13.2358576 L368.27597,13.2358576 Z M370.192521,11.3207014 L370.192521,13.2358576 L368.27597,13.2358576 L368.27597,11.3207014 L370.192521,11.3207014 Z M372.109072,7.49038889 L372.109072,11.3207014 L370.192521,11.3207014 L370.192521,7.49038889 L372.109072,7.49038889 Z M386.547091,7.49038889 L386.547091,9.40554514 L380.797438,9.40554514 L380.797438,7.49038889 L386.547091,7.49038889 Z M402.901662,7.49038889 L402.901662,9.40554514 L397.152008,9.40554514 L397.152008,22.8116389 L402.901662,22.8116389 L402.901662,24.7267951 L395.235457,24.7267951 L395.235457,7.49038889 L402.901662,7.49038889 Z M419.256233,22.8116389 L419.256233,24.7267951 L413.506579,24.7267951 L413.506579,22.8116389 L419.256233,22.8116389 Z M437.527355,7.49038889 L437.527355,9.40554514 L433.694252,9.40554514 L433.694252,24.7267951 L431.777701,24.7267951 L431.777701,9.40554514 L427.944598,9.40554514 L427.944598,7.49038889 L437.527355,7.49038889 Z M404.818213,9.40554514 L404.818213,22.8116389 L402.901662,22.8116389 L402.901662,9.40554514 L404.818213,9.40554514 Z M421.172784,9.40554514 L421.172784,22.8116389 L419.256233,22.8116389 L419.256233,9.40554514 L421.172784,9.40554514 Z M413.506579,9.40554514 L413.506579,22.8116389 L411.590028,22.8116389 L411.590028,9.40554514 L413.506579,9.40554514 Z M419.256233,7.49038889 L419.256233,9.40554514 L413.506579,9.40554514 L413.506579,7.49038889 L419.256233,7.49038889 Z" id="POLKADOT" fill="#22262A"></path>
        <g id="polkadto_logo" transform="translate(254.858726, 0.000000)" fill="#E6007A">
            <ellipse id="Oval" cx="18.0581717" cy="3.40472222" rx="5.79224377" ry="3.40472222"></ellipse>
            <ellipse id="Oval" cx="18.0581717" cy="29.2806111" rx="5.79224377" ry="3.40472222"></ellipse>
            <ellipse id="Oval" transform="translate(6.578771, 9.871764) rotate(-60.000000) translate(-6.578771, -9.871764) " cx="6.57877148" cy="9.8717644" rx="5.89636976" ry="3.42045635"></ellipse>
            <ellipse id="Oval" transform="translate(28.856288, 22.812157) rotate(-60.000000) translate(-28.856288, -22.812157) " cx="28.8562884" cy="22.8121567" rx="5.89636976" ry="3.42045635"></ellipse>
            <ellipse id="Oval" transform="translate(6.578767, 22.811995) rotate(-30.000000) translate(-6.578767, -22.811995) " cx="6.57876652" cy="22.8119954" rx="3.42045635" ry="5.89636976"></ellipse>
            <ellipse id="Oval" transform="translate(28.856155, 9.871870) rotate(-30.000000) translate(-28.856155, -9.871870) " cx="28.8561552" cy="9.87186998" rx="3.42045635" ry="5.89636976"></ellipse>
        </g>
    </g>
</svg>