<?xml version="1.0" encoding="UTF-8"?>
<svg width="434px" height="90px" viewBox="0 0 434 90" version="1.1" xmlns="http://www.w3.org/2000/svg" xmlns:xlink="http://www.w3.org/1999/xlink">
    <g stroke="none" stroke-width="1" fill="none" fill-rule="evenodd">
        <g transform="translate(-398.000000, -371.000000)" fill="#0F1923" fill-rule="nonzero">
            <g transform="translate(398.000000, 371.000000)">
                <path d="M44.85,0.19 C69.3990571,0.19 89.3,20.0909429 89.3,44.64 C89.3,69.1890571 69.3990571,89.09 44.85,89.09 C20.3009429,89.09 0.4,69.1890571 0.4,44.64 C0.4,20.0909429 20.3009429,0.19 44.85,0.19 Z M30.98,53.96 C26.8544329,53.96 23.51,57.3044329 23.51,61.43 C23.51,65.5555671 26.8544329,68.9 30.98,68.9 C35.1055671,68.9 38.45,65.5555671 38.45,61.43 C38.45,57.3044329 35.1055671,53.96 30.98,53.96 Z M48.31,37.17 C44.18,37.17 26.97,44.64 26.97,44.64 C26.97,44.64 44.19,52.11 48.31,52.11 C52.44,52.11 55.78,48.76 55.78,44.64 C55.78,40.51 52.44,37.17 48.31,37.17 Z M58.71,20.38 C54.59,20.38 30.44,27.85 30.44,27.85 C30.44,27.85 54.59,35.32 58.71,35.32 C62.84,35.32 66.18,31.97 66.18,27.85 C66.18,23.72 62.84,20.38 58.71,20.38 Z"></path>
                <path d="M120.1,63 L120.1,36.65 L128.75,36.65 L128.75,28 L102.5,28 L102.5,36.65 L111.15,36.65 L111.15,63 L120.1,63 Z M145.5,63.75 C149.566667,63.75 152.883333,62.6333333 155.45,60.4 C158.05,58.1666667 159.35,55.2 159.35,51.5 L159.35,51.5 L159.35,28 L150.4,28 L150.4,50.65 C150.4,53.5833333 148.766667,55.05 145.5,55.05 C142.233333,55.05 140.6,53.5833333 140.6,50.65 L140.6,50.65 L140.6,28 L131.65,28 L131.65,51.5 C131.65,55.2 132.941667,58.1666667 135.525,60.4 C138.108333,62.6333333 141.433333,63.75 145.5,63.75 Z M173.45,63 L173.45,51.7 L176.65,51.7 L182.75,63 L192.35,63 L185.15,50.05 C186.983333,49.0166667 188.433333,47.625 189.5,45.875 C190.566667,44.125 191.1,42.2 191.1,40.1 C191.1,36.6 189.891667,33.7083333 187.475,31.425 C185.058333,29.1416667 182.066667,28 178.5,28 L178.5,28 L164.5,28 L164.5,63 L173.45,63 Z M178.632653,44.1012755 L178.4,44.1 L173.45,44.1 L173.45,36.25 L178.4,36.25 C179.5,36.25 180.4,36.6166667 181.1,37.35 C181.8,38.0833333 182.15,39.0333333 182.15,40.2 C182.15,41.3666667 181.8,42.3166667 181.1,43.05 C180.4,43.7833333 179.5,44.1333333 178.4,44.1 L178.632653,44.1012755 Z M210.25,63 C213.816667,63 216.666667,62.0666667 218.8,60.2 C220.933333,58.3333333 222,55.85 222,52.75 C222,49.25 220.533333,46.6333333 217.6,44.9 C219.766667,43.2 220.85,40.8833333 220.85,37.95 C220.85,34.8833333 219.8,32.4583333 217.7,30.675 C215.6,28.8916667 212.8,28 209.3,28 L209.3,28 L195.5,28 L195.5,63 L210.25,63 Z M209.05,41.5 L204.45,41.5 L204.45,36 L209.05,36 C209.883333,36 210.566667,36.25 211.1,36.75 C211.633333,37.25 211.9,37.9166667 211.9,38.75 C211.9,39.6166667 211.625,40.2916667 211.075,40.775 C210.525,41.2583333 209.85,41.5 209.05,41.5 L209.05,41.5 Z M210,55 L204.45,55 L204.45,49.1 L210,49.1 C210.9,49.1 211.633333,49.3666667 212.2,49.9 C212.766667,50.4333333 213.05,51.15 213.05,52.05 C213.05,52.9166667 212.766667,53.625 212.2,54.175 C211.633333,54.725 210.9,55 210,55 L210,55 Z M242.6,63.75 C247.733333,63.75 252.066667,62 255.6,58.5 C259.166667,54.9666667 260.95,50.6333333 260.95,45.5 C260.95,40.3666667 259.175,36.0416667 255.625,32.525 C252.075,29.0083333 247.733333,27.25 242.6,27.25 C237.466667,27.25 233.125,29.0083333 229.575,32.525 C226.025,36.0416667 224.25,40.3666667 224.25,45.5 C224.25,50.6333333 226.025,54.9583333 229.575,58.475 C233.125,61.9916667 237.466667,63.75 242.6,63.75 Z M242.6,55 C239.9,55 237.65,54.1166667 235.85,52.35 C234.05,50.55 233.15,48.2666667 233.15,45.5 C233.15,42.7333333 234.05,40.4583333 235.85,38.675 C237.65,36.8916667 239.9,36 242.6,36 C245.3,36 247.55,36.8916667 249.35,38.675 C251.15,40.4583333 252.05,42.7333333 252.05,45.5 C252.05,48.2666667 251.15,50.5416667 249.35,52.325 C247.55,54.1083333 245.3,55 242.6,55 Z M274.05,63 L274.05,51 L286.35,51 L286.35,42.35 L274.05,42.35 L274.05,36.65 L286.6,36.65 L286.6,28 L265.1,28 L265.1,63 L274.05,63 Z M312,63 L312,54.35 L299.95,54.35 L299.95,28 L291,28 L291,63 L312,63 Z M322.95,63 L324.45,57.95 L336.1,57.95 L337.6,63 L347.25,63 L335.7,28 L324.8,28 L313.25,63 L322.95,63 Z M333.8,50.25 L326.75,50.25 L330.25,38.35 L333.8,50.25 Z M358.75,63 L358.75,47.35 L368.8,63 L378.8,63 L367.2,45 L378.3,28 L368.3,28 L358.75,42.7 L358.75,28 L349.8,28 L349.8,63 L358.75,63 Z M403.85,63 L403.85,54.6 L390.3,54.6 L390.3,49.45 L402.35,49.45 L402.35,41.2 L390.3,41.2 L390.3,36.35 L403.6,36.35 L403.6,28 L381.35,28 L381.35,63 L403.85,63 Z M420.55,63.75 C424.55,63.75 427.766667,62.7833333 430.2,60.85 C432.633333,58.9166667 433.85,56.2333333 433.85,52.8 C433.85,51.0666667 433.55,49.5583333 432.95,48.275 C432.35,46.9916667 431.433333,45.9416667 430.2,45.125 C428.966667,44.3083333 427.833333,43.6833333 426.8,43.25 C425.766667,42.8166667 424.4,42.35 422.7,41.85 C420.333333,41.15 418.741667,40.5333333 417.925,40 C417.108333,39.4666667 416.7,38.8166667 416.7,38.05 C416.7,37.3833333 416.975,36.8333333 417.525,36.4 C418.075,35.9666667 418.883333,35.75 419.95,35.75 C422.483333,35.75 424.3,37.05 425.4,39.65 L425.4,39.65 L432.9,35.25 C431.7,32.65 429.966667,30.6666667 427.7,29.3 C425.433333,27.9333333 422.833333,27.25 419.9,27.25 C416.433333,27.25 413.541667,28.25 411.225,30.25 C408.908333,32.25 407.75,34.8666667 407.75,38.1 C407.75,41.1 408.683333,43.4416667 410.55,45.125 C412.416667,46.8083333 414.95,48.1166667 418.15,49.05 C420.416667,49.6833333 421.883333,50.1333333 422.55,50.4 C424.116667,51.0333333 424.9,51.8666667 424.9,52.9 C424.9,54.4666667 423.533333,55.25 420.8,55.25 C417.5,55.25 415.2,53.7 413.9,50.6 L413.9,50.6 L406.25,55.05 C407.216667,57.7166667 408.916667,59.8333333 411.35,61.4 C413.783333,62.9666667 416.85,63.75 420.55,63.75 Z"></path>
            </g>
        </g>
    </g>
</svg>